<svg width="16" height="16" viewBox="0 0 16 16" fill="none" xmlns="http://www.w3.org/2000/svg">
    <path
            fill-rule="evenodd"
            clip-rule="evenodd"
            d="M15.117 0H0.883047C0.395303 0 0 0.395302 0 0.883044V15.1169C0 15.6046 0.395303 16 0.883047 16H8.54613V9.80395H6.46099V7.38921H8.54613V5.60844C8.54613 3.54189 9.8083 2.41659 11.6518 2.41659C12.535 2.41659 13.2939 2.48229 13.5151 2.51167V4.67138L12.2365 4.67198C11.2339 4.67198 11.0397 5.14839 11.0397 5.84751V7.38921H13.4309L13.1196 9.80395H11.0397V16H15.117C15.6046 16 16 15.6046 16 15.1169V0.883044C16 0.395302 15.6046 0 15.117 0Z"
    />
</svg>