<svg width="16" height="17" viewBox="0 0 16 17" fill="white" xmlns="http://www.w3.org/2000/svg">
    <path
            fill-rule="evenodd"
            clip-rule="evenodd"
            d="M6.52517 0.0206604H9.47476C10.3803 0.0256908 10.6933 0.0383525 11.2983 0.0659594C12.1499 0.104797 12.7314 0.240046 13.2403 0.437791C13.7664 0.642236 14.2125 0.915783 14.6572 1.36053C15.102 1.8053 15.3755 2.25144 15.58 2.77751C15.7613 3.24397 15.89 3.7715 15.9401 4.51206L15.9707 5.15449C15.99 5.64231 15.9974 6.07744 15.9994 7.22293L15.9953 9.74968C15.9894 10.4643 15.9767 10.7722 15.9518 11.3162C15.913 12.1677 15.7778 12.7493 15.58 13.2581C15.3755 13.7842 15.102 14.2303 14.6572 14.6751C14.2125 15.1199 13.7664 15.3934 13.2403 15.5978C12.7314 15.7956 12.1499 15.9308 11.2983 15.9697L10.4526 16.002C10.0502 16.0123 9.5514 16.0164 8.59724 16.0175L6.39857 16.0142C5.58885 16.0087 5.27754 15.996 4.70159 15.9697C3.85005 15.9308 3.26854 15.7956 2.75964 15.5978C2.23357 15.3934 1.78743 15.1199 1.34269 14.6751C0.897946 14.2303 0.624399 13.7842 0.419954 13.2581C0.238659 12.7917 0.109931 12.2641 0.0597957 11.5236L0.0251946 10.7757C0.00878916 10.3236 0.00226605 9.86927 0.000488281 8.79143L0.00370194 6.39744C0.00927504 5.6018 0.0220174 5.29087 0.0480907 4.71943C0.0869601 3.86792 0.222177 3.28637 0.419954 2.77751C0.624399 2.25144 0.897946 1.8053 1.34269 1.36053C1.78743 0.915783 2.23357 0.642236 2.75964 0.437791C3.26854 0.240046 3.85005 0.104797 4.70159 0.0659594L5.59125 0.032532C5.83728 0.0266393 6.1227 0.0228962 6.52517 0.0206604ZM9.81771 1.46459H6.18221C5.56697 1.47064 5.27342 1.48281 4.76726 1.50591C3.9873 1.54147 3.56368 1.6718 3.28178 1.78136C2.90839 1.92648 2.64186 2.09984 2.36193 2.3798C2.082 2.65973 1.90861 2.92623 1.76349 3.29965L1.71561 3.42976C1.62674 3.6865 1.53521 4.04966 1.49707 4.62337L1.46554 5.31699C1.44954 5.75984 1.44352 6.20036 1.44191 7.25796L1.44588 9.73982C1.45158 10.4217 1.46378 10.7188 1.48804 11.2505C1.52364 12.0305 1.65396 12.4541 1.76349 12.736C1.90861 13.1094 2.082 13.3759 2.36193 13.6558C2.64186 13.9358 2.90839 14.1092 3.28178 14.2543L3.41189 14.3022C3.66864 14.3911 4.03182 14.4826 4.60553 14.5207L5.43376 14.5568C5.86084 14.5702 6.34253 14.575 7.41312 14.5761L9.69854 14.5721C10.3972 14.5665 10.6949 14.5543 11.2326 14.5297C12.0126 14.4942 12.4362 14.3638 12.7182 14.2543C13.0915 14.1092 13.3581 13.9358 13.638 13.6558C13.9179 13.3759 14.0913 13.1094 14.2364 12.736C14.3381 12.4742 14.4578 12.0903 14.5029 11.4123L14.5413 10.5031C14.5529 10.0943 14.5572 9.60825 14.5582 8.60464L14.556 6.58361C14.5513 5.68743 14.5393 5.38617 14.5119 4.78513C14.4763 4.00514 14.346 3.58154 14.2364 3.29965C14.0913 2.92623 13.9179 2.65973 13.638 2.3798C13.3581 2.09984 13.0915 1.92648 12.7182 1.78136L12.588 1.73347C12.3079 1.6365 11.9012 1.53639 11.2326 1.50591L10.2674 1.47115C10.1347 1.46842 9.98861 1.46627 9.81771 1.46459ZM7.99996 4C10.2091 4 12 5.79084 12 8.00001C12 10.2091 10.2091 12 7.99996 12C5.79083 12 3.99996 10.2091 3.99996 8.00001C3.99996 5.79084 5.79083 4 7.99996 4ZM7.99996 5.4035C6.56597 5.4035 5.40346 6.56599 5.40346 8.00001C5.40346 9.43401 6.56597 10.5965 7.99996 10.5965C9.43395 10.5965 10.5964 9.43401 10.5964 8.00001C10.5964 6.56599 9.43395 5.4035 7.99996 5.4035ZM12.1781 2.75502C12.7304 2.75502 13.1781 3.20272 13.1781 3.75502C13.1781 4.30732 12.7304 4.75502 12.1781 4.75502C11.6258 4.75502 11.1781 4.30732 11.1781 3.75502C11.1781 3.20272 11.6258 2.75502 12.1781 2.75502Z"
    />
</svg>