<svg width="16" height="16" viewBox="0 0 16 16" fill="white" xmlns="http://www.w3.org/2000/svg">
    <path
            fill-rule="evenodd"
            clip-rule="evenodd"
            d="M13.634 13.6341H11.2624V9.92089C11.2624 9.035 11.2462 7.89611 10.0293 7.89611C8.79433 7.89611 8.60522 8.86078 8.60522 9.85678V13.6341H6.23378V5.99844H8.51033V7.04178H8.54189C8.85856 6.44144 9.63267 5.80844 10.7872 5.80844C13.1903 5.80844 13.634 7.38989 13.634 9.44578V13.6341ZM3.55933 4.95467C2.79867 4.95467 2.183 4.33789 2.183 3.57833C2.183 2.81933 2.79867 2.20278 3.55933 2.20278C4.318 2.20278 4.93456 2.81933 4.93456 3.57833C4.93456 4.33789 4.318 4.95467 3.55933 4.95467ZM2.37222 13.6341H4.74544V5.99844H2.37222V13.6341ZM14.8159 0H1.181C0.529444 0 0 0.516445 0 1.15322V14.8454C0 15.4828 0.529444 16 1.181 16H14.8159C15.4686 16 16.0002 15.4828 16.0002 14.8454V1.15322C16.0002 0.516445 15.4686 0 14.8159 0Z"
    />
</svg>