<svg width="16" height="16" viewBox="0 0 16 16" fill="white" xmlns="http://www.w3.org/2000/svg">
    <path
            fill-rule="evenodd"
            clip-rule="evenodd"
            d="M15.6656 4.41552C15.4816 3.7271 14.9394 3.18501 14.251 3.00102C13.0034 2.66663 7.99993 2.66663 7.99993 2.66663C7.99993 2.66663 2.99665 2.66663 1.74889 3.00102C1.06048 3.18501 0.518253 3.7271 0.334264 4.41552C0 5.66328 0 8.26666 0 8.26666C0 8.26666 0 10.8699 0.334264 12.1177C0.518253 12.8061 1.06048 13.3483 1.74889 13.5323C2.99665 13.8666 7.99993 13.8666 7.99993 13.8666C7.99993 13.8666 13.0034 13.8666 14.251 13.5323C14.9394 13.3483 15.4816 12.8061 15.6656 12.1177C16 10.8699 16 8.26666 16 8.26666C16 8.26666 16 5.66328 15.6656 4.41552ZM6.39996 10.6666V5.86668L10.5567 8.26671L6.39996 10.6666Z"
    />
</svg>